<svg class="main-svg" xmlns="http://www.w3.org/2000/svg" xmlns:xlink="http://www.w3.org/1999/xlink" width="800" height="600" style="" viewBox="0 0 800 600"><rect x="0" y="0" width="800" height="600" style="fill: rgb(255, 255, 255); fill-opacity: 1;"/><defs id="defs-5c64bb"><g class="clips"><clipPath id="clip5c64bbxyplot" class="plotclip"><rect width="544" height="399.5"/></clipPath><clipPath id="clip5c64bbxy2plot" class="plotclip"><rect width="544" height="70.50000000000001"/></clipPath><clipPath id="clip5c64bbx2yplot" class="plotclip"><rect width="96.00000000000001" height="399.5"/></clipPath><clipPath class="axesclip" id="clip5c64bbx"><rect x="80" y="0" width="544" height="600"/></clipPath><clipPath class="axesclip" id="clip5c64bby"><rect x="0" y="120.50000000000001" width="800" height="399.5"/></clipPath><clipPath class="axesclip" id="clip5c64bbxy"><rect x="80" y="120.50000000000001" width="544" height="399.5"/></clipPath><clipPath class="axesclip" id="clip5c64bby2"><rect x="0" y="50" width="800" height="70.50000000000001"/></clipPath><clipPath class="axesclip" id="clip5c64bbxy2"><rect x="80" y="50" width="544" height="70.50000000000001"/></clipPath><clipPath class="axesclip" id="clip5c64bbx2"><rect x="624" y="0" width="96.00000000000001" height="600"/></clipPath><clipPath class="axesclip" id="clip5c64bbx2y"><rect x="624" y="120.50000000000001" width="96.00000000000001" height="399.5"/></clipPath><clipPath class="axesclip" id="clip5c64bbx2y2"><rect x="624" y="50" width="96.00000000000001" height="70.50000000000001"/></clipPath><clipPath class="contourclip" id="clip501f7821-ca8d-4c73-80d3-5c84470e1b7c"/></g><g class="gradients"/></defs><g class="bglayer"/><g class="layer-below"><g class="imagelayer"/><g class="shapelayer"/></g><g class="cartesianlayer"><g class="subplot xy"><g class="layer-subplot"><g class="shapelayer"/><g class="imagelayer"/></g><g class="gridlayer"><g class="x"/><g class="y"/></g><g class="zerolinelayer"/><path class="xlines-below"/><path class="ylines-below"/><g class="overlines-below"/><g class="xaxislayer-below"/><g class="yaxislayer-below"/><g class="overaxes-below"/><g class="plot" transform="translate(80, 120.50000000000001)" clip-path="url('#clip5c64bbxyplot')"><g class="contourlayer mlayer"><g class="contour" style="opacity: 1;"><g class="heatmapcoloring"/><g class="contourbg"><path d="M0,0L544,0L544,399.5L0,399.5Z" style="stroke: none; fill: rgb(250, 250, 250);"/></g><g class="contourfill"><path d="M181.33,379.53C132.98,379.53 61.83,335.18 36.27,299.63C16.25,271.8 4.56,228.3 18.13,199.75C36.52,161.08 145.9,124.26 181.33,109.86C197.25,103.39 201.97,106.23 217.6,99.88C250.39,86.56 314.31,19.98 362.67,19.98C411.02,19.98 507.73,73.25 507.73,99.88C507.73,126.51 387.25,160.37 362.67,179.78C352.75,187.61 349.58,189.52 344.53,199.75C334.74,219.6 346.41,271.8 326.4,299.63C300.84,335.18 229.69,379.53 181.33,379.53Z" style="stroke: none; fill: rgb(252, 252, 162);"/><path d="M181.33,359.55C145.06,359.55 96.74,327.93 72.53,299.63C50.13,273.46 25.75,227.72 36.27,199.75C49.4,164.83 140.43,136.47 181.33,119.85C208.9,108.65 227.92,110.43 253.87,99.88C287.21,86.33 326.4,39.95 362.67,39.95C398.94,39.95 471.47,79.9 471.47,99.88C471.47,119.85 388.13,139.69 362.67,159.8C345.89,173.06 337.04,182.1 326.4,199.75C311.46,224.51 312.53,273.46 290.13,299.63C265.91,327.93 217.6,359.55 181.33,359.55Z" style="stroke: none; fill: rgb(254, 254, 73);"/><path d="M181.33,339.58C157.15,339.58 128.97,319.89 108.8,299.63C85.16,275.88 46.41,227.1 54.4,199.75C63.42,168.88 139.66,146.78 181.33,129.84C218.1,114.89 258.19,112.86 290.13,99.88C317.49,88.76 338.49,59.93 362.67,59.93C386.85,59.93 435.2,86.56 435.2,99.88C435.2,113.19 383.91,123.04 362.67,139.82C341.67,156.41 325.11,176.06 308.27,199.75C288.31,227.83 277.51,275.88 253.87,299.63C233.7,319.9 205.51,339.58 181.33,339.58Z" style="stroke: none; fill: rgb(249, 223, 69);"/><path d="M181.33,319.6C169.24,319.6 157.86,310.92 145.07,299.63C122.98,280.14 66.59,226.36 72.53,199.75C78.49,173.05 145.06,139.83 181.33,139.83C217.6,139.83 284.17,173.05 290.13,199.75C296.07,226.36 239.69,280.14 217.6,299.63C204.81,310.92 193.42,319.6 181.33,319.6ZM362.67,119.85C350.58,119.85 326.4,106.54 326.4,99.88C326.4,93.22 350.58,79.9 362.67,79.9C374.76,79.9 398.93,93.22 398.93,99.88C398.93,106.54 374.76,119.85 362.67,119.85Z" style="stroke: none; fill: rgb(240, 180, 93);"/><path d="M181.33,299.63C151.11,299.63 86.39,225.43 90.67,199.75C94.42,177.26 151.11,149.81 181.33,149.81C211.55,149.81 268.25,177.26 272,199.75C276.28,225.43 211.55,299.63 181.33,299.63Z" style="stroke: none; fill: rgb(231, 144, 107);"/><path d="M181.33,279.65C157.15,279.65 105.38,220.29 108.8,199.75C111.8,181.76 157.15,159.8 181.33,159.8C205.51,159.8 250.87,181.76 253.87,199.75C257.29,220.29 205.51,279.65 181.33,279.65Z" style="stroke: none; fill: rgb(221, 117, 112);"/><path d="M181.33,259.68C163.2,259.68 124.36,215.16 126.93,199.75C129.18,186.26 163.2,169.79 181.33,169.79C199.46,169.79 233.48,186.26 235.73,199.75C238.3,215.16 199.46,259.68 181.33,259.68Z" style="stroke: none; fill: rgb(203, 93, 116);"/><path d="M181.33,239.7C169.24,239.7 143.36,210.02 145.07,199.75C146.57,190.75 169.24,179.77 181.33,179.77C193.42,179.77 216.1,190.75 217.6,199.75C219.31,210.02 193.42,239.7 181.33,239.7Z" style="stroke: none; fill: rgb(162, 81, 118);"/><path d="M181.33,219.73C175.29,219.73 162.34,204.89 163.2,199.75C163.95,195.25 175.29,189.76 181.33,189.76C187.38,189.76 198.72,195.25 199.47,199.75C200.33,204.89 187.38,219.73 181.33,219.73Z" style="stroke: none; fill: rgb(122, 69, 121);"/></g><g class="contourlines"><g class="contourlevel"><path class="closedline" d="M181.33,379.53C132.98,379.53 61.83,335.18 36.27,299.63C16.25,271.8 4.56,228.3 18.13,199.75C36.52,161.08 145.9,124.26 181.33,109.86C197.25,103.39 201.97,106.23 217.6,99.88C250.39,86.56 314.31,19.98 362.67,19.98C411.02,19.98 507.73,73.25 507.73,99.88C507.73,126.51 387.25,160.37 362.67,179.78C352.75,187.61 349.58,189.52 344.53,199.75C334.74,219.6 346.41,271.8 326.4,299.63C300.84,335.18 229.69,379.53 181.33,379.53Z" style="stroke-miterlimit: 1; vector-effect: non-scaling-stroke; fill: none; stroke: rgb(0, 0, 0); stroke-opacity: 1; stroke-width: 0.5px;"/></g><g class="contourlevel"><path class="closedline" d="M181.33,359.55C145.06,359.55 96.74,327.93 72.53,299.63C50.13,273.46 25.75,227.72 36.27,199.75C49.4,164.83 140.43,136.47 181.33,119.85C208.9,108.65 227.92,110.43 253.87,99.88C287.21,86.33 326.4,39.95 362.67,39.95C398.94,39.95 471.47,79.9 471.47,99.88C471.47,119.85 388.13,139.69 362.67,159.8C345.89,173.06 337.04,182.1 326.4,199.75C311.46,224.51 312.53,273.46 290.13,299.63C265.91,327.93 217.6,359.55 181.33,359.55Z" style="stroke-miterlimit: 1; vector-effect: non-scaling-stroke; fill: none; stroke: rgb(0, 0, 0); stroke-opacity: 1; stroke-width: 0.5px;"/></g><g class="contourlevel"><path class="closedline" d="M181.33,339.58C157.15,339.58 128.97,319.89 108.8,299.63C85.16,275.88 46.41,227.1 54.4,199.75C63.42,168.88 139.66,146.78 181.33,129.84C218.1,114.89 258.19,112.86 290.13,99.88C317.49,88.76 338.49,59.93 362.67,59.93C386.85,59.93 435.2,86.56 435.2,99.88C435.2,113.19 383.91,123.04 362.67,139.82C341.67,156.41 325.11,176.06 308.27,199.75C288.31,227.83 277.51,275.88 253.87,299.63C233.7,319.9 205.51,339.58 181.33,339.58Z" style="stroke-miterlimit: 1; vector-effect: non-scaling-stroke; fill: none; stroke: rgb(0, 0, 0); stroke-opacity: 1; stroke-width: 0.5px;"/></g><g class="contourlevel"><path class="closedline" d="M181.33,319.6C169.24,319.6 157.86,310.92 145.07,299.63C122.98,280.14 66.59,226.36 72.53,199.75C78.49,173.05 145.06,139.83 181.33,139.83C217.6,139.83 284.17,173.05 290.13,199.75C296.07,226.36 239.69,280.14 217.6,299.63C204.81,310.92 193.42,319.6 181.33,319.6Z" style="stroke-miterlimit: 1; vector-effect: non-scaling-stroke; fill: none; stroke: rgb(0, 0, 0); stroke-opacity: 1; stroke-width: 0.5px;"/><path class="closedline" d="M362.67,119.85C350.58,119.85 326.4,106.54 326.4,99.88C326.4,93.22 350.58,79.9 362.67,79.9C374.76,79.9 398.93,93.22 398.93,99.88C398.93,106.54 374.76,119.85 362.67,119.85Z" style="stroke-miterlimit: 1; vector-effect: non-scaling-stroke; fill: none; stroke: rgb(0, 0, 0); stroke-opacity: 1; stroke-width: 0.5px;"/></g><g class="contourlevel"><path class="closedline" d="M181.33,299.63C151.11,299.63 86.39,225.43 90.67,199.75C94.42,177.26 151.11,149.81 181.33,149.81C211.55,149.81 268.25,177.26 272,199.75C276.28,225.43 211.55,299.63 181.33,299.63Z" style="stroke-miterlimit: 1; vector-effect: non-scaling-stroke; fill: none; stroke: rgb(0, 0, 0); stroke-opacity: 1; stroke-width: 0.5px;"/></g><g class="contourlevel"><path class="closedline" d="M181.33,279.65C157.15,279.65 105.38,220.29 108.8,199.75C111.8,181.76 157.15,159.8 181.33,159.8C205.51,159.8 250.87,181.76 253.87,199.75C257.29,220.29 205.51,279.65 181.33,279.65Z" style="stroke-miterlimit: 1; vector-effect: non-scaling-stroke; fill: none; stroke: rgb(0, 0, 0); stroke-opacity: 1; stroke-width: 0.5px;"/></g><g class="contourlevel"><path class="closedline" d="M181.33,259.68C163.2,259.68 124.36,215.16 126.93,199.75C129.18,186.26 163.2,169.79 181.33,169.79C199.46,169.79 233.48,186.26 235.73,199.75C238.3,215.16 199.46,259.68 181.33,259.68Z" style="stroke-miterlimit: 1; vector-effect: non-scaling-stroke; fill: none; stroke: rgb(0, 0, 0); stroke-opacity: 1; stroke-width: 0.5px;"/></g><g class="contourlevel"><path class="closedline" d="M181.33,239.7C169.24,239.7 143.36,210.02 145.07,199.75C146.57,190.75 169.24,179.77 181.33,179.77C193.42,179.77 216.1,190.75 217.6,199.75C219.31,210.02 193.42,239.7 181.33,239.7Z" style="stroke-miterlimit: 1; vector-effect: non-scaling-stroke; fill: none; stroke: rgb(0, 0, 0); stroke-opacity: 1; stroke-width: 0.5px;"/></g><g class="contourlevel"><path class="closedline" d="M181.33,219.73C175.29,219.73 162.34,204.89 163.2,199.75C163.95,195.25 175.29,189.76 181.33,189.76C187.38,189.76 198.72,195.25 199.47,199.75C200.33,204.89 187.38,219.73 181.33,219.73Z" style="stroke-miterlimit: 1; vector-effect: non-scaling-stroke; fill: none; stroke: rgb(0, 0, 0); stroke-opacity: 1; stroke-width: 0.5px;"/></g></g></g></g><g class="scatterlayer mlayer"><g class="trace scatter traceb353247b-cedc-45c7-bb7f-c13221692a25" style="stroke-miterlimit: 2; opacity: 1;"><g class="fills"/><g class="errorbars"/><g class="lines"/><g class="points"><path class="point" transform="translate(139.63,274.66)" style="opacity: 0.4; stroke-width: 0px; fill: rgb(255, 255, 255); fill-opacity: 1;" d="M2.5,0A2.5,2.5 0 1,1 0,-2.5A2.5,2.5 0 0,1 2.5,0Z"/><path class="point" transform="translate(186.77,224.72)" style="opacity: 0.4; stroke-width: 0px; fill: rgb(255, 255, 255); fill-opacity: 1;" d="M2.5,0A2.5,2.5 0 1,1 0,-2.5A2.5,2.5 0 0,1 2.5,0Z"/><path class="point" transform="translate(252.05,174.78)" style="opacity: 0.4; stroke-width: 0px; fill: rgb(255, 255, 255); fill-opacity: 1;" d="M2.5,0A2.5,2.5 0 1,1 0,-2.5A2.5,2.5 0 0,1 2.5,0Z"/><path class="point" transform="translate(324.59,124.84)" style="opacity: 0.4; stroke-width: 0px; fill: rgb(255, 255, 255); fill-opacity: 1;" d="M2.5,0A2.5,2.5 0 1,1 0,-2.5A2.5,2.5 0 0,1 2.5,0Z"/></g><g class="text"/></g></g></g><g class="overplot"/><path class="xlines-above crisp" style="fill: none; stroke-width: 1px; stroke: rgb(0, 0, 0); stroke-opacity: 0;" d=""/><path class="ylines-above crisp" style="fill: none; stroke-width: 1px; stroke: rgb(0, 0, 0); stroke-opacity: 0;" d=""/><g class="overlines-above"/><g class="xaxislayer-above"><path class="xtick ticks crisp" style="stroke: rgb(68, 68, 68); stroke-opacity: 1; stroke-width: 1px;" d="M0,521v5" transform="translate(99.95,0)"/><path class="xtick ticks crisp" style="stroke: rgb(68, 68, 68); stroke-opacity: 1; stroke-width: 1px;" d="M0,521v5" transform="translate(172.48000000000002,0)"/><path class="xtick ticks crisp" style="stroke: rgb(68, 68, 68); stroke-opacity: 1; stroke-width: 1px;" d="M0,521v5" transform="translate(245.01,0)"/><path class="xtick ticks crisp" style="stroke: rgb(68, 68, 68); stroke-opacity: 1; stroke-width: 1px;" d="M0,521v5" transform="translate(317.55,0)"/><path class="xtick ticks crisp" style="stroke: rgb(68, 68, 68); stroke-opacity: 1; stroke-width: 1px;" d="M0,521v5" transform="translate(390.08,0)"/><path class="xtick ticks crisp" style="stroke: rgb(68, 68, 68); stroke-opacity: 1; stroke-width: 1px;" d="M0,521v5" transform="translate(462.61,0)"/><path class="xtick ticks crisp" style="stroke: rgb(68, 68, 68); stroke-opacity: 1; stroke-width: 1px;" d="M0,521v5" transform="translate(535.15,0)"/><path class="xtick ticks crisp" style="stroke: rgb(68, 68, 68); stroke-opacity: 1; stroke-width: 1px;" d="M0,521v5" transform="translate(607.68,0)"/><g class="xtick"><text text-anchor="middle" x="0" y="540.4" style="font-family: TOBESTRIPPEDOpen SansTOBESTRIPPED, verdana, arial, sans-serif; font-size: 12px; fill: rgb(68, 68, 68); fill-opacity: 1; white-space: pre;" transform="translate(99.95,0)">−20</text></g><g class="xtick"><text text-anchor="middle" x="0" y="540.4" style="font-family: TOBESTRIPPEDOpen SansTOBESTRIPPED, verdana, arial, sans-serif; font-size: 12px; fill: rgb(68, 68, 68); fill-opacity: 1; white-space: pre;" transform="translate(172.48000000000002,0)">0</text></g><g class="xtick"><text text-anchor="middle" x="0" y="540.4" style="font-family: TOBESTRIPPEDOpen SansTOBESTRIPPED, verdana, arial, sans-serif; font-size: 12px; fill: rgb(68, 68, 68); fill-opacity: 1; white-space: pre;" transform="translate(245.01,0)">20</text></g><g class="xtick"><text text-anchor="middle" x="0" y="540.4" style="font-family: TOBESTRIPPEDOpen SansTOBESTRIPPED, verdana, arial, sans-serif; font-size: 12px; fill: rgb(68, 68, 68); fill-opacity: 1; white-space: pre;" transform="translate(317.55,0)">40</text></g><g class="xtick"><text text-anchor="middle" x="0" y="540.4" style="font-family: TOBESTRIPPEDOpen SansTOBESTRIPPED, verdana, arial, sans-serif; font-size: 12px; fill: rgb(68, 68, 68); fill-opacity: 1; white-space: pre;" transform="translate(390.08,0)">60</text></g><g class="xtick"><text text-anchor="middle" x="0" y="540.4" style="font-family: TOBESTRIPPEDOpen SansTOBESTRIPPED, verdana, arial, sans-serif; font-size: 12px; fill: rgb(68, 68, 68); fill-opacity: 1; white-space: pre;" transform="translate(462.61,0)">80</text></g><g class="xtick"><text text-anchor="middle" x="0" y="540.4" style="font-family: TOBESTRIPPEDOpen SansTOBESTRIPPED, verdana, arial, sans-serif; font-size: 12px; fill: rgb(68, 68, 68); fill-opacity: 1; white-space: pre;" transform="translate(535.15,0)">100</text></g><g class="xtick"><text text-anchor="middle" x="0" y="540.4" style="font-family: TOBESTRIPPEDOpen SansTOBESTRIPPED, verdana, arial, sans-serif; font-size: 12px; fill: rgb(68, 68, 68); fill-opacity: 1; white-space: pre;" transform="translate(607.68,0)">120</text></g></g><g class="yaxislayer-above"><path class="ytick ticks crisp" style="stroke: rgb(68, 68, 68); stroke-opacity: 1; stroke-width: 1px;" d="M79,0h-5" transform="translate(0,495.03)"/><path class="ytick ticks crisp" style="stroke: rgb(68, 68, 68); stroke-opacity: 1; stroke-width: 1px;" d="M79,0h-5" transform="translate(0,445.09)"/><path class="ytick ticks crisp" style="stroke: rgb(68, 68, 68); stroke-opacity: 1; stroke-width: 1px;" d="M79,0h-5" transform="translate(0,395.16)"/><path class="ytick ticks crisp" style="stroke: rgb(68, 68, 68); stroke-opacity: 1; stroke-width: 1px;" d="M79,0h-5" transform="translate(0,345.22)"/><path class="ytick ticks crisp" style="stroke: rgb(68, 68, 68); stroke-opacity: 1; stroke-width: 1px;" d="M79,0h-5" transform="translate(0,295.28000000000003)"/><path class="ytick ticks crisp" style="stroke: rgb(68, 68, 68); stroke-opacity: 1; stroke-width: 1px;" d="M79,0h-5" transform="translate(0,245.34000000000003)"/><path class="ytick ticks crisp" style="stroke: rgb(68, 68, 68); stroke-opacity: 1; stroke-width: 1px;" d="M79,0h-5" transform="translate(0,195.41000000000003)"/><path class="ytick ticks crisp" style="stroke: rgb(68, 68, 68); stroke-opacity: 1; stroke-width: 1px;" d="M79,0h-5" transform="translate(0,145.47000000000003)"/><g class="ytick"><text text-anchor="end" x="71.6" y="4.199999999999999" style="font-family: TOBESTRIPPEDOpen SansTOBESTRIPPED, verdana, arial, sans-serif; font-size: 12px; fill: rgb(68, 68, 68); fill-opacity: 1; white-space: pre;" transform="translate(0,495.03)">−1</text></g><g class="ytick"><text text-anchor="end" x="71.6" y="4.199999999999999" style="font-family: TOBESTRIPPEDOpen SansTOBESTRIPPED, verdana, arial, sans-serif; font-size: 12px; fill: rgb(68, 68, 68); fill-opacity: 1; white-space: pre;" transform="translate(0,445.09)">0</text></g><g class="ytick"><text text-anchor="end" x="71.6" y="4.199999999999999" style="font-family: TOBESTRIPPEDOpen SansTOBESTRIPPED, verdana, arial, sans-serif; font-size: 12px; fill: rgb(68, 68, 68); fill-opacity: 1; white-space: pre;" transform="translate(0,395.16)">1</text></g><g class="ytick"><text text-anchor="end" x="71.6" y="4.199999999999999" style="font-family: TOBESTRIPPEDOpen SansTOBESTRIPPED, verdana, arial, sans-serif; font-size: 12px; fill: rgb(68, 68, 68); fill-opacity: 1; white-space: pre;" transform="translate(0,345.22)">2</text></g><g class="ytick"><text text-anchor="end" x="71.6" y="4.199999999999999" style="font-family: TOBESTRIPPEDOpen SansTOBESTRIPPED, verdana, arial, sans-serif; font-size: 12px; fill: rgb(68, 68, 68); fill-opacity: 1; white-space: pre;" transform="translate(0,295.28000000000003)">3</text></g><g class="ytick"><text text-anchor="end" x="71.6" y="4.199999999999999" style="font-family: TOBESTRIPPEDOpen SansTOBESTRIPPED, verdana, arial, sans-serif; font-size: 12px; fill: rgb(68, 68, 68); fill-opacity: 1; white-space: pre;" transform="translate(0,245.34000000000003)">4</text></g><g class="ytick"><text text-anchor="end" x="71.6" y="4.199999999999999" style="font-family: TOBESTRIPPEDOpen SansTOBESTRIPPED, verdana, arial, sans-serif; font-size: 12px; fill: rgb(68, 68, 68); fill-opacity: 1; white-space: pre;" transform="translate(0,195.41000000000003)">5</text></g><g class="ytick"><text text-anchor="end" x="71.6" y="4.199999999999999" style="font-family: TOBESTRIPPEDOpen SansTOBESTRIPPED, verdana, arial, sans-serif; font-size: 12px; fill: rgb(68, 68, 68); fill-opacity: 1; white-space: pre;" transform="translate(0,145.47000000000003)">6</text></g></g><g class="overaxes-above"/></g><g class="subplot xy2"><g class="layer-subplot"><g class="shapelayer"/><g class="imagelayer"/></g><g class="gridlayer"><g class="x"/><g class="y2"/></g><g class="zerolinelayer"/><path class="xlines-below"/><path class="ylines-below"/><g class="overlines-below"/><g class="xaxislayer-below"/><g class="yaxislayer-below"/><g class="overaxes-below"/><g class="plot" transform="translate(80, 50)" clip-path="url('#clip5c64bbxy2plot')"><g class="barlayer mlayer"><g class="trace bars" style="opacity: 1;" shape-rendering="crispEdges"><g class="points"><g class="point"><path style="vector-effect: non-scaling-stroke; opacity: 1; stroke-width: 0px; fill: rgb(255, 237, 222); fill-opacity: 1;" d="M90.67,70.5V3.53H272V70.5Z"/></g><g class="point"><path style="vector-effect: non-scaling-stroke; opacity: 1; stroke-width: 0px; fill: rgb(255, 237, 222); fill-opacity: 1;" d="M272,70.5V48.18H453.33V70.5Z"/></g></g></g></g></g><g class="overplot"/><path class="xlines-above crisp" style="fill: none;" d="M0,0"/><path class="ylines-above crisp" style="fill: none;" d="M0,0"/><g class="overlines-above"/><g class="xaxislayer-above"/><g class="yaxislayer-above"><g class="y2tick"><text text-anchor="end" x="79" y="4.199999999999999" style="font-family: TOBESTRIPPEDOpen SansTOBESTRIPPED, verdana, arial, sans-serif; font-size: 12px; fill: rgb(68, 68, 68); fill-opacity: 1; white-space: pre;" transform="translate(0,120.5)">0</text></g><g class="y2tick"><text text-anchor="end" x="79" y="4.199999999999999" style="font-family: TOBESTRIPPEDOpen SansTOBESTRIPPED, verdana, arial, sans-serif; font-size: 12px; fill: rgb(68, 68, 68); fill-opacity: 1; white-space: pre;" transform="translate(0,98.18)">1</text></g><g class="y2tick"><text text-anchor="end" x="79" y="4.199999999999999" style="font-family: TOBESTRIPPEDOpen SansTOBESTRIPPED, verdana, arial, sans-serif; font-size: 12px; fill: rgb(68, 68, 68); fill-opacity: 1; white-space: pre;" transform="translate(0,75.85)">2</text></g><g class="y2tick"><text text-anchor="end" x="79" y="4.199999999999999" style="font-family: TOBESTRIPPEDOpen SansTOBESTRIPPED, verdana, arial, sans-serif; font-size: 12px; fill: rgb(68, 68, 68); fill-opacity: 1; white-space: pre;" transform="translate(0,53.53)">3</text></g></g><g class="overaxes-above"/></g><g class="subplot x2y"><g class="layer-subplot"><g class="shapelayer"/><g class="imagelayer"/></g><g class="gridlayer"><g class="x2"/><g class="y"/></g><g class="zerolinelayer"/><path class="xlines-below"/><path class="ylines-below"/><g class="overlines-below"/><g class="xaxislayer-below"/><g class="yaxislayer-below"/><g class="overaxes-below"/><g class="plot" transform="translate(624, 120.50000000000001)" clip-path="url('#clip5c64bbx2yplot')"><g class="barlayer mlayer"><g class="trace bars" style="opacity: 1;" shape-rendering="crispEdges"><g class="points"><g class="point"><path style="vector-effect: non-scaling-stroke; opacity: 1; stroke-width: 0px; fill: rgb(255, 237, 222); fill-opacity: 1;" d="M0,349.56V249.69H45.6V349.56Z"/></g><g class="point"><path style="vector-effect: non-scaling-stroke; opacity: 1; stroke-width: 0px; fill: rgb(255, 237, 222); fill-opacity: 1;" d="M0,249.69V149.81H91.2V249.69Z"/></g><g class="point"><path style="vector-effect: non-scaling-stroke; opacity: 1; stroke-width: 0px; fill: rgb(255, 237, 222); fill-opacity: 1;" d="M0,149.81V49.94H45.6V149.81Z"/></g></g></g></g></g><g class="overplot"/><path class="xlines-above crisp" style="fill: none;" d="M0,0"/><path class="ylines-above crisp" style="fill: none;" d="M0,0"/><g class="overlines-above"/><g class="xaxislayer-above"><g class="x2tick"><text text-anchor="middle" x="0" y="533" style="font-family: TOBESTRIPPEDOpen SansTOBESTRIPPED, verdana, arial, sans-serif; font-size: 12px; fill: rgb(68, 68, 68); fill-opacity: 1; white-space: pre;" transform="translate(624,0)">0</text></g><g class="x2tick"><text text-anchor="middle" x="0" y="533" style="font-family: TOBESTRIPPEDOpen SansTOBESTRIPPED, verdana, arial, sans-serif; font-size: 12px; fill: rgb(68, 68, 68); fill-opacity: 1; white-space: pre;" transform="translate(646.8,0)">0.5</text></g><g class="x2tick"><text text-anchor="middle" x="0" y="533" style="font-family: TOBESTRIPPEDOpen SansTOBESTRIPPED, verdana, arial, sans-serif; font-size: 12px; fill: rgb(68, 68, 68); fill-opacity: 1; white-space: pre;" transform="translate(669.6,0)">1</text></g><g class="x2tick"><text text-anchor="middle" x="0" y="533" style="font-family: TOBESTRIPPEDOpen SansTOBESTRIPPED, verdana, arial, sans-serif; font-size: 12px; fill: rgb(68, 68, 68); fill-opacity: 1; white-space: pre;" transform="translate(692.4,0)">1.5</text></g><g class="x2tick"><text text-anchor="middle" x="0" y="533" style="font-family: TOBESTRIPPEDOpen SansTOBESTRIPPED, verdana, arial, sans-serif; font-size: 12px; fill: rgb(68, 68, 68); fill-opacity: 1; white-space: pre;" transform="translate(715.2,0)">2</text></g></g><g class="yaxislayer-above"/><g class="overaxes-above"/></g></g><g class="polarlayer"/><g class="ternarylayer"/><g class="geolayer"/><g class="funnelarealayer"/><g class="pielayer"/><g class="sunburstlayer"/><g class="glimages"/><defs id="topdefs-5c64bb"><g class="clips"/></defs><g class="layer-above"><g class="imagelayer"/><g class="shapelayer"/></g><g class="infolayer"><g class="g-gtitle"><text class="gtitle" style="font-family: TOBESTRIPPEDOpen SansTOBESTRIPPED, verdana, arial, sans-serif; font-size: 17px; fill: rgb(68, 68, 68); opacity: 1; font-weight: normal; white-space: pre;" x="400" y="25" text-anchor="middle" dy="0em">2D Density Plot</text></g><g class="g-xtitle"/><g class="g-x2title"/><g class="g-ytitle"/><g class="g-y2title"/></g></svg>