<svg class="main-svg" xmlns="http://www.w3.org/2000/svg" xmlns:xlink="http://www.w3.org/1999/xlink" width="800" height="600" style="" viewBox="0 0 800 600"><rect x="0" y="0" width="800" height="600" style="fill: rgb(255, 255, 255); fill-opacity: 1;"/><defs id="defs-abd13b"><g class="clips"><clipPath id="clipabd13bxyplot" class="plotclip"><rect width="544" height="399.5"/></clipPath><clipPath id="clipabd13bxy2plot" class="plotclip"><rect width="544" height="70.50000000000001"/></clipPath><clipPath id="clipabd13bx2yplot" class="plotclip"><rect width="96.00000000000001" height="399.5"/></clipPath><clipPath class="axesclip" id="clipabd13bx"><rect x="80" y="0" width="544" height="600"/></clipPath><clipPath class="axesclip" id="clipabd13by"><rect x="0" y="120.50000000000001" width="800" height="399.5"/></clipPath><clipPath class="axesclip" id="clipabd13bxy"><rect x="80" y="120.50000000000001" width="544" height="399.5"/></clipPath><clipPath class="axesclip" id="clipabd13by2"><rect x="0" y="50" width="800" height="70.50000000000001"/></clipPath><clipPath class="axesclip" id="clipabd13bxy2"><rect x="80" y="50" width="544" height="70.50000000000001"/></clipPath><clipPath class="axesclip" id="clipabd13bx2"><rect x="624" y="0" width="96.00000000000001" height="600"/></clipPath><clipPath class="axesclip" id="clipabd13bx2y"><rect x="624" y="120.50000000000001" width="96.00000000000001" height="399.5"/></clipPath><clipPath class="axesclip" id="clipabd13bx2y2"><rect x="624" y="50" width="96.00000000000001" height="70.50000000000001"/></clipPath><clipPath class="contourclip" id="clip2d51b0cf-680f-4cd3-93fb-1e510f3f4a80"/></g><g class="gradients"/></defs><g class="bglayer"/><g class="layer-below"><g class="imagelayer"/><g class="shapelayer"/></g><g class="cartesianlayer"><g class="subplot xy"><g class="layer-subplot"><g class="shapelayer"/><g class="imagelayer"/></g><g class="gridlayer"><g class="x"/><g class="y"/></g><g class="zerolinelayer"/><path class="xlines-below"/><path class="ylines-below"/><g class="overlines-below"/><g class="xaxislayer-below"/><g class="yaxislayer-below"/><g class="overaxes-below"/><g class="plot" transform="translate(80, 120.50000000000001)" clip-path="url('#clipabd13bxyplot')"><g class="contourlayer mlayer"><g class="contour" style="opacity: 1;"><g class="heatmapcoloring"/><g class="contourbg"><path d="M0,0L544,0L544,399.5L0,399.5Z" style="stroke: none; fill: rgb(250, 250, 250);"/></g><g class="contourfill"><path d="M181.33,386.18C126.93,386.18 38.46,314.29 18.13,266.33C1.57,227.26 13.66,171.21 36.27,133.17C62.44,89.15 127.05,44.42 181.33,26.63C235.81,8.77 308.19,8.77 362.67,26.63C416.95,44.42 507.73,97.66 507.73,133.17C507.73,168.68 387.09,214.4 362.67,239.7C352.34,250.4 355.04,255.44 344.53,266.33C318.18,293.63 235.73,386.18 181.33,386.18Z" style="stroke: none; fill: rgb(252, 252, 162);"/><path d="M181.33,372.87C132.98,372.87 51.49,309.93 36.27,266.33C22.95,228.15 48.08,168.78 72.53,133.17C96.71,97.95 137.71,67.57 181.33,53.27C231.89,36.7 312.11,36.7 362.67,53.27C406.29,67.57 471.47,106.54 471.47,133.17C471.47,159.8 387.84,186.99 362.67,213.07C345.28,231.09 344.8,247.27 326.4,266.33C295.66,298.19 229.69,372.87 181.33,372.87Z" style="stroke: none; fill: rgb(254, 254, 73);"/><path d="M181.33,359.55C139.02,359.55 65.37,305.26 54.4,266.33C43.91,229.12 83.72,165.31 108.8,133.17C128.63,107.75 149.55,90.32 181.33,79.9C226.45,65.11 317.55,65.11 362.67,79.9C394.45,90.32 435.2,115.41 435.2,133.17C435.2,150.92 383.57,164.78 362.67,186.43C341.01,208.87 333,240.7 308.27,266.33C276.7,299.04 223.64,359.55 181.33,359.55Z" style="stroke: none; fill: rgb(249, 223, 69);"/><path d="M181.33,346.23C145.06,346.23 80.12,300.36 72.53,266.33C64.49,230.26 122.18,159.38 145.07,133.17C157.54,118.9 163.25,112.46 181.33,106.53C217.63,94.63 326.37,94.63 362.67,106.53C380.75,112.46 398.93,124.29 398.93,133.17C398.93,142.05 375.57,146.43 362.67,159.8C340.83,182.43 319.87,235.51 290.13,266.33C259.69,297.87 217.6,346.23 181.33,346.23Z" style="stroke: none; fill: rgb(240, 180, 93);"/><path d="M181.33,332.92C151.11,332.92 95.64,295.31 90.67,266.33C84.73,231.65 151.11,133.17 181.33,133.17C211.55,133.17 277.94,231.65 272,266.33C267.03,295.31 211.55,332.92 181.33,332.92Z" style="stroke: none; fill: rgb(231, 144, 107);"/><path d="M181.33,319.6C157.15,319.6 112.77,289.51 108.8,266.33C104.04,238.59 157.15,159.8 181.33,159.8C205.51,159.8 258.63,238.59 253.87,266.33C249.9,289.51 205.51,319.6 181.33,319.6Z" style="stroke: none; fill: rgb(221, 117, 112);"/><path d="M181.33,306.28C163.2,306.28 129.91,283.72 126.93,266.33C123.36,245.52 163.2,186.43 181.33,186.43C199.46,186.43 239.3,245.52 235.73,266.33C232.75,283.72 199.46,306.28 181.33,306.28Z" style="stroke: none; fill: rgb(203, 93, 116);"/><path d="M181.33,292.97C169.24,292.97 147.06,277.92 145.07,266.33C142.69,252.46 169.24,213.07 181.33,213.07C193.42,213.07 219.98,252.46 217.6,266.33C215.61,277.92 193.42,292.97 181.33,292.97Z" style="stroke: none; fill: rgb(162, 81, 118);"/><path d="M181.33,279.65C175.29,279.65 164.19,272.13 163.2,266.33C162.01,259.39 175.29,239.7 181.33,239.7C187.38,239.7 200.66,259.39 199.47,266.33C198.48,272.13 187.38,279.65 181.33,279.65Z" style="stroke: none; fill: rgb(122, 69, 121);"/></g><g class="contourlines"><g class="contourlevel"><path class="closedline" d="M181.33,386.18C126.93,386.18 38.46,314.29 18.13,266.33C1.57,227.26 13.66,171.21 36.27,133.17C62.44,89.15 127.05,44.42 181.33,26.63C235.81,8.77 308.19,8.77 362.67,26.63C416.95,44.42 507.73,97.66 507.73,133.17C507.73,168.68 387.09,214.4 362.67,239.7C352.34,250.4 355.04,255.44 344.53,266.33C318.18,293.63 235.73,386.18 181.33,386.18Z" style="stroke-miterlimit: 1; vector-effect: non-scaling-stroke; fill: none; stroke: rgb(0, 0, 0); stroke-opacity: 1; stroke-width: 0.5px;"/></g><g class="contourlevel"><path class="closedline" d="M181.33,372.87C132.98,372.87 51.49,309.93 36.27,266.33C22.95,228.15 48.08,168.78 72.53,133.17C96.71,97.95 137.71,67.57 181.33,53.27C231.89,36.7 312.11,36.7 362.67,53.27C406.29,67.57 471.47,106.54 471.47,133.17C471.47,159.8 387.84,186.99 362.67,213.07C345.28,231.09 344.8,247.27 326.4,266.33C295.66,298.19 229.69,372.87 181.33,372.87Z" style="stroke-miterlimit: 1; vector-effect: non-scaling-stroke; fill: none; stroke: rgb(0, 0, 0); stroke-opacity: 1; stroke-width: 0.5px;"/></g><g class="contourlevel"><path class="closedline" d="M181.33,359.55C139.02,359.55 65.37,305.26 54.4,266.33C43.91,229.12 83.72,165.31 108.8,133.17C128.63,107.75 149.55,90.32 181.33,79.9C226.45,65.11 317.55,65.11 362.67,79.9C394.45,90.32 435.2,115.41 435.2,133.17C435.2,150.92 383.57,164.78 362.67,186.43C341.01,208.87 333,240.7 308.27,266.33C276.7,299.04 223.64,359.55 181.33,359.55Z" style="stroke-miterlimit: 1; vector-effect: non-scaling-stroke; fill: none; stroke: rgb(0, 0, 0); stroke-opacity: 1; stroke-width: 0.5px;"/></g><g class="contourlevel"><path class="closedline" d="M181.33,346.23C145.06,346.23 80.12,300.36 72.53,266.33C64.49,230.26 122.18,159.38 145.07,133.17C157.54,118.9 163.25,112.46 181.33,106.53C217.63,94.63 326.37,94.63 362.67,106.53C380.75,112.46 398.93,124.29 398.93,133.17C398.93,142.05 375.57,146.43 362.67,159.8C340.83,182.43 319.87,235.51 290.13,266.33C259.69,297.87 217.6,346.23 181.33,346.23Z" style="stroke-miterlimit: 1; vector-effect: non-scaling-stroke; fill: none; stroke: rgb(0, 0, 0); stroke-opacity: 1; stroke-width: 0.5px;"/></g><g class="contourlevel"><path class="closedline" d="M181.33,332.92C151.11,332.92 95.64,295.31 90.67,266.33C84.73,231.65 151.11,133.17 181.33,133.17C211.55,133.17 277.94,231.65 272,266.33C267.03,295.31 211.55,332.92 181.33,332.92Z" style="stroke-miterlimit: 1; vector-effect: non-scaling-stroke; fill: none; stroke: rgb(0, 0, 0); stroke-opacity: 1; stroke-width: 0.5px;"/></g><g class="contourlevel"><path class="closedline" d="M181.33,319.6C157.15,319.6 112.77,289.51 108.8,266.33C104.04,238.59 157.15,159.8 181.33,159.8C205.51,159.8 258.63,238.59 253.87,266.33C249.9,289.51 205.51,319.6 181.33,319.6Z" style="stroke-miterlimit: 1; vector-effect: non-scaling-stroke; fill: none; stroke: rgb(0, 0, 0); stroke-opacity: 1; stroke-width: 0.5px;"/></g><g class="contourlevel"><path class="closedline" d="M181.33,306.28C163.2,306.28 129.91,283.72 126.93,266.33C123.36,245.52 163.2,186.43 181.33,186.43C199.46,186.43 239.3,245.52 235.73,266.33C232.75,283.72 199.46,306.28 181.33,306.28Z" style="stroke-miterlimit: 1; vector-effect: non-scaling-stroke; fill: none; stroke: rgb(0, 0, 0); stroke-opacity: 1; stroke-width: 0.5px;"/></g><g class="contourlevel"><path class="closedline" d="M181.33,292.97C169.24,292.97 147.06,277.92 145.07,266.33C142.69,252.46 169.24,213.07 181.33,213.07C193.42,213.07 219.98,252.46 217.6,266.33C215.61,277.92 193.42,292.97 181.33,292.97Z" style="stroke-miterlimit: 1; vector-effect: non-scaling-stroke; fill: none; stroke: rgb(0, 0, 0); stroke-opacity: 1; stroke-width: 0.5px;"/></g><g class="contourlevel"><path class="closedline" d="M181.33,279.65C175.29,279.65 164.19,272.13 163.2,266.33C162.01,259.39 175.29,239.7 181.33,239.7C187.38,239.7 200.66,259.39 199.47,266.33C198.48,272.13 187.38,279.65 181.33,279.65Z" style="stroke-miterlimit: 1; vector-effect: non-scaling-stroke; fill: none; stroke: rgb(0, 0, 0); stroke-opacity: 1; stroke-width: 0.5px;"/></g></g></g></g><g class="scatterlayer mlayer"><g class="trace scatter trace64e7faf3-5e95-45e2-b041-cf249214124c" style="stroke-miterlimit: 2; opacity: 1;"><g class="fills"/><g class="errorbars"/><g class="lines"/><g class="points"><path class="point" transform="translate(143.25,299.62)" style="opacity: 0.4; stroke-width: 0px; fill: rgb(255, 255, 255); fill-opacity: 1;" d="M2.5,0A2.5,2.5 0 1,1 0,-2.5A2.5,2.5 0 0,1 2.5,0Z"/><path class="point" transform="translate(194.03,233.04)" style="opacity: 0.4; stroke-width: 0px; fill: rgb(255, 255, 255); fill-opacity: 1;" d="M2.5,0A2.5,2.5 0 1,1 0,-2.5A2.5,2.5 0 0,1 2.5,0Z"/><path class="point" transform="translate(259.31,166.46)" style="opacity: 0.4; stroke-width: 0px; fill: rgb(255, 255, 255); fill-opacity: 1;" d="M2.5,0A2.5,2.5 0 1,1 0,-2.5A2.5,2.5 0 0,1 2.5,0Z"/><path class="point" transform="translate(371.73,99.87)" style="opacity: 0.4; stroke-width: 0px; fill: rgb(255, 255, 255); fill-opacity: 1;" d="M2.5,0A2.5,2.5 0 1,1 0,-2.5A2.5,2.5 0 0,1 2.5,0Z"/></g><g class="text"/></g></g></g><g class="overplot"/><path class="xlines-above crisp" style="fill: none; stroke-width: 1px; stroke: rgb(0, 0, 0); stroke-opacity: 0;" d=""/><path class="ylines-above crisp" style="fill: none; stroke-width: 1px; stroke: rgb(0, 0, 0); stroke-opacity: 0;" d=""/><g class="overlines-above"/><g class="xaxislayer-above"><path class="xtick ticks crisp" style="stroke: rgb(68, 68, 68); stroke-opacity: 1; stroke-width: 1px;" d="M0,521v5" transform="translate(99.95,0)"/><path class="xtick ticks crisp" style="stroke: rgb(68, 68, 68); stroke-opacity: 1; stroke-width: 1px;" d="M0,521v5" transform="translate(172.48000000000002,0)"/><path class="xtick ticks crisp" style="stroke: rgb(68, 68, 68); stroke-opacity: 1; stroke-width: 1px;" d="M0,521v5" transform="translate(245.01,0)"/><path class="xtick ticks crisp" style="stroke: rgb(68, 68, 68); stroke-opacity: 1; stroke-width: 1px;" d="M0,521v5" transform="translate(317.55,0)"/><path class="xtick ticks crisp" style="stroke: rgb(68, 68, 68); stroke-opacity: 1; stroke-width: 1px;" d="M0,521v5" transform="translate(390.08,0)"/><path class="xtick ticks crisp" style="stroke: rgb(68, 68, 68); stroke-opacity: 1; stroke-width: 1px;" d="M0,521v5" transform="translate(462.61,0)"/><path class="xtick ticks crisp" style="stroke: rgb(68, 68, 68); stroke-opacity: 1; stroke-width: 1px;" d="M0,521v5" transform="translate(535.15,0)"/><path class="xtick ticks crisp" style="stroke: rgb(68, 68, 68); stroke-opacity: 1; stroke-width: 1px;" d="M0,521v5" transform="translate(607.68,0)"/><g class="xtick"><text text-anchor="middle" x="0" y="540.4" style="font-family: TOBESTRIPPEDOpen SansTOBESTRIPPED, verdana, arial, sans-serif; font-size: 12px; fill: rgb(68, 68, 68); fill-opacity: 1; white-space: pre;" transform="translate(99.95,0)">−20</text></g><g class="xtick"><text text-anchor="middle" x="0" y="540.4" style="font-family: TOBESTRIPPEDOpen SansTOBESTRIPPED, verdana, arial, sans-serif; font-size: 12px; fill: rgb(68, 68, 68); fill-opacity: 1; white-space: pre;" transform="translate(172.48000000000002,0)">0</text></g><g class="xtick"><text text-anchor="middle" x="0" y="540.4" style="font-family: TOBESTRIPPEDOpen SansTOBESTRIPPED, verdana, arial, sans-serif; font-size: 12px; fill: rgb(68, 68, 68); fill-opacity: 1; white-space: pre;" transform="translate(245.01,0)">20</text></g><g class="xtick"><text text-anchor="middle" x="0" y="540.4" style="font-family: TOBESTRIPPEDOpen SansTOBESTRIPPED, verdana, arial, sans-serif; font-size: 12px; fill: rgb(68, 68, 68); fill-opacity: 1; white-space: pre;" transform="translate(317.55,0)">40</text></g><g class="xtick"><text text-anchor="middle" x="0" y="540.4" style="font-family: TOBESTRIPPEDOpen SansTOBESTRIPPED, verdana, arial, sans-serif; font-size: 12px; fill: rgb(68, 68, 68); fill-opacity: 1; white-space: pre;" transform="translate(390.08,0)">60</text></g><g class="xtick"><text text-anchor="middle" x="0" y="540.4" style="font-family: TOBESTRIPPEDOpen SansTOBESTRIPPED, verdana, arial, sans-serif; font-size: 12px; fill: rgb(68, 68, 68); fill-opacity: 1; white-space: pre;" transform="translate(462.61,0)">80</text></g><g class="xtick"><text text-anchor="middle" x="0" y="540.4" style="font-family: TOBESTRIPPEDOpen SansTOBESTRIPPED, verdana, arial, sans-serif; font-size: 12px; fill: rgb(68, 68, 68); fill-opacity: 1; white-space: pre;" transform="translate(535.15,0)">100</text></g><g class="xtick"><text text-anchor="middle" x="0" y="540.4" style="font-family: TOBESTRIPPEDOpen SansTOBESTRIPPED, verdana, arial, sans-serif; font-size: 12px; fill: rgb(68, 68, 68); fill-opacity: 1; white-space: pre;" transform="translate(607.68,0)">120</text></g></g><g class="yaxislayer-above"><path class="ytick ticks crisp" style="stroke: rgb(68, 68, 68); stroke-opacity: 1; stroke-width: 1px;" d="M79,0h-5" transform="translate(0,486.71)"/><path class="ytick ticks crisp" style="stroke: rgb(68, 68, 68); stroke-opacity: 1; stroke-width: 1px;" d="M79,0h-5" transform="translate(0,420.12)"/><path class="ytick ticks crisp" style="stroke: rgb(68, 68, 68); stroke-opacity: 1; stroke-width: 1px;" d="M79,0h-5" transform="translate(0,353.54)"/><path class="ytick ticks crisp" style="stroke: rgb(68, 68, 68); stroke-opacity: 1; stroke-width: 1px;" d="M79,0h-5" transform="translate(0,286.96000000000004)"/><path class="ytick ticks crisp" style="stroke: rgb(68, 68, 68); stroke-opacity: 1; stroke-width: 1px;" d="M79,0h-5" transform="translate(0,220.37)"/><path class="ytick ticks crisp" style="stroke: rgb(68, 68, 68); stroke-opacity: 1; stroke-width: 1px;" d="M79,0h-5" transform="translate(0,153.79000000000002)"/><g class="ytick"><text text-anchor="end" x="71.6" y="4.199999999999999" style="font-family: TOBESTRIPPEDOpen SansTOBESTRIPPED, verdana, arial, sans-serif; font-size: 12px; fill: rgb(68, 68, 68); fill-opacity: 1; white-space: pre;" transform="translate(0,486.71)">3</text></g><g class="ytick"><text text-anchor="end" x="71.6" y="4.199999999999999" style="font-family: TOBESTRIPPEDOpen SansTOBESTRIPPED, verdana, arial, sans-serif; font-size: 12px; fill: rgb(68, 68, 68); fill-opacity: 1; white-space: pre;" transform="translate(0,420.12)">4</text></g><g class="ytick"><text text-anchor="end" x="71.6" y="4.199999999999999" style="font-family: TOBESTRIPPEDOpen SansTOBESTRIPPED, verdana, arial, sans-serif; font-size: 12px; fill: rgb(68, 68, 68); fill-opacity: 1; white-space: pre;" transform="translate(0,353.54)">5</text></g><g class="ytick"><text text-anchor="end" x="71.6" y="4.199999999999999" style="font-family: TOBESTRIPPEDOpen SansTOBESTRIPPED, verdana, arial, sans-serif; font-size: 12px; fill: rgb(68, 68, 68); fill-opacity: 1; white-space: pre;" transform="translate(0,286.96000000000004)">6</text></g><g class="ytick"><text text-anchor="end" x="71.6" y="4.199999999999999" style="font-family: TOBESTRIPPEDOpen SansTOBESTRIPPED, verdana, arial, sans-serif; font-size: 12px; fill: rgb(68, 68, 68); fill-opacity: 1; white-space: pre;" transform="translate(0,220.37)">7</text></g><g class="ytick"><text text-anchor="end" x="71.6" y="4.199999999999999" style="font-family: TOBESTRIPPEDOpen SansTOBESTRIPPED, verdana, arial, sans-serif; font-size: 12px; fill: rgb(68, 68, 68); fill-opacity: 1; white-space: pre;" transform="translate(0,153.79000000000002)">8</text></g></g><g class="overaxes-above"/></g><g class="subplot xy2"><g class="layer-subplot"><g class="shapelayer"/><g class="imagelayer"/></g><g class="gridlayer"><g class="x"/><g class="y2"/></g><g class="zerolinelayer"/><path class="xlines-below"/><path class="ylines-below"/><g class="overlines-below"/><g class="xaxislayer-below"/><g class="yaxislayer-below"/><g class="overaxes-below"/><g class="plot" transform="translate(80, 50)" clip-path="url('#clipabd13bxy2plot')"><g class="barlayer mlayer"><g class="trace bars" style="opacity: 1;" shape-rendering="crispEdges"><g class="points"><g class="point"><path style="vector-effect: non-scaling-stroke; opacity: 1; stroke-width: 0px; fill: rgb(255, 237, 222); fill-opacity: 1;" d="M90.67,70.5V3.53H272V70.5Z"/></g><g class="point"><path style="vector-effect: non-scaling-stroke; opacity: 1; stroke-width: 0px; fill: rgb(255, 237, 222); fill-opacity: 1;" d="M272,70.5V48.18H453.33V70.5Z"/></g></g></g></g></g><g class="overplot"/><path class="xlines-above crisp" style="fill: none;" d="M0,0"/><path class="ylines-above crisp" style="fill: none;" d="M0,0"/><g class="overlines-above"/><g class="xaxislayer-above"/><g class="yaxislayer-above"><g class="y2tick"><text text-anchor="end" x="79" y="4.199999999999999" style="font-family: TOBESTRIPPEDOpen SansTOBESTRIPPED, verdana, arial, sans-serif; font-size: 12px; fill: rgb(68, 68, 68); fill-opacity: 1; white-space: pre;" transform="translate(0,120.5)">0</text></g><g class="y2tick"><text text-anchor="end" x="79" y="4.199999999999999" style="font-family: TOBESTRIPPEDOpen SansTOBESTRIPPED, verdana, arial, sans-serif; font-size: 12px; fill: rgb(68, 68, 68); fill-opacity: 1; white-space: pre;" transform="translate(0,98.18)">1</text></g><g class="y2tick"><text text-anchor="end" x="79" y="4.199999999999999" style="font-family: TOBESTRIPPEDOpen SansTOBESTRIPPED, verdana, arial, sans-serif; font-size: 12px; fill: rgb(68, 68, 68); fill-opacity: 1; white-space: pre;" transform="translate(0,75.85)">2</text></g><g class="y2tick"><text text-anchor="end" x="79" y="4.199999999999999" style="font-family: TOBESTRIPPEDOpen SansTOBESTRIPPED, verdana, arial, sans-serif; font-size: 12px; fill: rgb(68, 68, 68); fill-opacity: 1; white-space: pre;" transform="translate(0,53.53)">3</text></g></g><g class="overaxes-above"/></g><g class="subplot x2y"><g class="layer-subplot"><g class="shapelayer"/><g class="imagelayer"/></g><g class="gridlayer"><g class="x2"/><g class="y"/></g><g class="zerolinelayer"/><path class="xlines-below"/><path class="ylines-below"/><g class="overlines-below"/><g class="xaxislayer-below"/><g class="yaxislayer-below"/><g class="overaxes-below"/><g class="plot" transform="translate(624, 120.50000000000001)" clip-path="url('#clipabd13bx2yplot')"><g class="barlayer mlayer"><g class="trace bars" style="opacity: 1;" shape-rendering="crispEdges"><g class="points"><g class="point"><path style="vector-effect: non-scaling-stroke; opacity: 1; stroke-width: 0px; fill: rgb(255, 237, 222); fill-opacity: 1;" d="M0,332.92V199.75H91.2V332.92Z"/></g><g class="point"><path style="vector-effect: non-scaling-stroke; opacity: 1; stroke-width: 0px; fill: rgb(255, 237, 222); fill-opacity: 1;" d="M0,199.75V66.58H91.2V199.75Z"/></g></g></g></g></g><g class="overplot"/><path class="xlines-above crisp" style="fill: none;" d="M0,0"/><path class="ylines-above crisp" style="fill: none;" d="M0,0"/><g class="overlines-above"/><g class="xaxislayer-above"><g class="x2tick"><text text-anchor="middle" x="0" y="533" style="font-family: TOBESTRIPPEDOpen SansTOBESTRIPPED, verdana, arial, sans-serif; font-size: 12px; fill: rgb(68, 68, 68); fill-opacity: 1; white-space: pre;" transform="translate(624,0)">0</text></g><g class="x2tick"><text text-anchor="middle" x="0" y="533" style="font-family: TOBESTRIPPEDOpen SansTOBESTRIPPED, verdana, arial, sans-serif; font-size: 12px; fill: rgb(68, 68, 68); fill-opacity: 1; white-space: pre;" transform="translate(646.8,0)">0.5</text></g><g class="x2tick"><text text-anchor="middle" x="0" y="533" style="font-family: TOBESTRIPPEDOpen SansTOBESTRIPPED, verdana, arial, sans-serif; font-size: 12px; fill: rgb(68, 68, 68); fill-opacity: 1; white-space: pre;" transform="translate(669.6,0)">1</text></g><g class="x2tick"><text text-anchor="middle" x="0" y="533" style="font-family: TOBESTRIPPEDOpen SansTOBESTRIPPED, verdana, arial, sans-serif; font-size: 12px; fill: rgb(68, 68, 68); fill-opacity: 1; white-space: pre;" transform="translate(692.4,0)">1.5</text></g><g class="x2tick"><text text-anchor="middle" x="0" y="533" style="font-family: TOBESTRIPPEDOpen SansTOBESTRIPPED, verdana, arial, sans-serif; font-size: 12px; fill: rgb(68, 68, 68); fill-opacity: 1; white-space: pre;" transform="translate(715.2,0)">2</text></g></g><g class="yaxislayer-above"/><g class="overaxes-above"/></g></g><g class="polarlayer"/><g class="ternarylayer"/><g class="geolayer"/><g class="funnelarealayer"/><g class="pielayer"/><g class="sunburstlayer"/><g class="glimages"/><defs id="topdefs-abd13b"><g class="clips"/></defs><g class="layer-above"><g class="imagelayer"/><g class="shapelayer"/></g><g class="infolayer"><g class="g-gtitle"><text class="gtitle" style="font-family: TOBESTRIPPEDOpen SansTOBESTRIPPED, verdana, arial, sans-serif; font-size: 17px; fill: rgb(68, 68, 68); opacity: 1; font-weight: normal; white-space: pre;" x="400" y="25" text-anchor="middle" dy="0em">2D Density Plot</text></g><g class="g-xtitle"/><g class="g-x2title"/><g class="g-ytitle"/><g class="g-y2title"/></g></svg>