<svg class="main-svg" xmlns="http://www.w3.org/2000/svg" xmlns:xlink="http://www.w3.org/1999/xlink" width="800" height="600" style="" viewBox="0 0 800 600"><rect x="0" y="0" width="800" height="600" style="fill: rgb(255, 255, 255); fill-opacity: 1;"/><defs id="defs-91af5c"><g class="clips"><clipPath id="clip91af5cxyplot" class="plotclip"><rect width="544" height="399.5"/></clipPath><clipPath id="clip91af5cxy2plot" class="plotclip"><rect width="544" height="70.50000000000001"/></clipPath><clipPath id="clip91af5cx2yplot" class="plotclip"><rect width="96.00000000000001" height="399.5"/></clipPath><clipPath class="axesclip" id="clip91af5cx"><rect x="80" y="0" width="544" height="600"/></clipPath><clipPath class="axesclip" id="clip91af5cy"><rect x="0" y="120.50000000000001" width="800" height="399.5"/></clipPath><clipPath class="axesclip" id="clip91af5cxy"><rect x="80" y="120.50000000000001" width="544" height="399.5"/></clipPath><clipPath class="axesclip" id="clip91af5cy2"><rect x="0" y="50" width="800" height="70.50000000000001"/></clipPath><clipPath class="axesclip" id="clip91af5cxy2"><rect x="80" y="50" width="544" height="70.50000000000001"/></clipPath><clipPath class="axesclip" id="clip91af5cx2"><rect x="624" y="0" width="96.00000000000001" height="600"/></clipPath><clipPath class="axesclip" id="clip91af5cx2y"><rect x="624" y="120.50000000000001" width="96.00000000000001" height="399.5"/></clipPath><clipPath class="axesclip" id="clip91af5cx2y2"><rect x="624" y="50" width="96.00000000000001" height="70.50000000000001"/></clipPath><clipPath class="contourclip" id="clipb9e914c0-893a-45dc-84b6-2d25c3f67a9e"/></g><g class="gradients"/></defs><g class="bglayer"/><g class="layer-below"><g class="imagelayer"/><g class="shapelayer"/></g><g class="cartesianlayer"><g class="subplot xy"><g class="layer-subplot"><g class="shapelayer"/><g class="imagelayer"/></g><g class="gridlayer"><g class="x"/><g class="y"/></g><g class="zerolinelayer"/><path class="xlines-below"/><path class="ylines-below"/><g class="overlines-below"/><g class="xaxislayer-below"/><g class="yaxislayer-below"/><g class="overaxes-below"/><g class="plot" transform="translate(80, 120.50000000000001)" clip-path="url('#clip91af5cxyplot')"><g class="contourlayer mlayer"><g class="contour" style="opacity: 1;"><g class="heatmapcoloring"/><g class="contourbg"><path d="M0,0L544,0L544,399.5L0,399.5Z" style="stroke: none; fill: rgb(250, 250, 250);"/></g><g class="contourfill"><path d="M181.33,389.51C126.19,389.51 41.12,338.54 18.13,299.63C1.29,271.14 18.13,233.04 18.13,199.75C18.13,166.46 1.3,128.37 18.13,99.88C41.12,60.96 126.19,9.99 181.33,9.99C237.98,9.99 296.18,73.24 353.6,104.87C411.02,136.5 525.87,168.12 525.87,199.75C525.87,231.38 411.02,263.01 353.6,294.635C296.18,326.26 237.98,389.51 181.33,389.51Z" style="stroke: none; fill: rgb(252, 252, 162);"/><path d="M181.33,379.53C132.98,379.53 57.41,335.4 36.27,299.63C19.86,271.85 36.27,233.04 36.27,199.75C36.27,166.46 19.86,127.66 36.27,99.88C57.41,64.11 132.98,19.98 181.33,19.98C229.69,19.98 294.16,82.13 326.4,99.88C342.52,108.76 346.55,110.97 362.67,119.85C394.91,137.6 507.73,173.12 507.73,199.75C507.73,226.38 394.91,261.89 362.67,279.65C346.55,288.53 342.52,290.75 326.4,299.63C294.16,317.39 229.69,379.53 181.33,379.53Z" style="stroke: none; fill: rgb(254, 254, 73);"/><path d="M181.33,369.54C139.02,369.54 73.59,332.11 54.4,299.63C38.47,272.66 54.4,233.04 54.4,199.75C54.4,166.46 38.47,126.85 54.4,99.88C73.59,67.4 139.02,29.96 181.33,29.96C223.64,29.96 274.79,81.44 308.27,99.88C330.19,111.95 340.75,117.77 362.67,129.84C396.15,148.28 489.6,176.45 489.6,199.75C489.6,223.05 396.15,251.22 362.67,269.66C340.75,281.73 330.19,287.56 308.27,299.63C274.79,318.07 223.64,369.54 181.33,369.54Z" style="stroke: none; fill: rgb(249, 223, 69);"/><path d="M181.33,359.55C145.06,359.55 89.68,328.65 72.53,299.63C57.15,273.61 72.53,233.04 72.53,199.75C72.53,166.46 57.16,125.9 72.53,99.88C89.68,70.86 145.06,39.95 181.33,39.95C217.6,39.95 257.53,81.92 290.13,99.88C316.75,114.54 336.05,125.17 362.67,139.83C395.27,157.79 471.47,179.78 471.47,199.75C471.47,219.73 395.27,241.72 362.67,259.68C336.05,274.34 316.75,284.97 290.13,299.63C257.53,317.59 217.6,359.55 181.33,359.55Z" style="stroke: none; fill: rgb(240, 180, 93);"/><path d="M181.33,349.56C151.11,349.56 105.65,324.97 90.67,299.63C75.96,274.73 90.67,233.04 90.67,199.75C90.67,166.46 75.96,124.78 90.67,99.88C105.64,74.53 151.11,49.94 181.33,49.94C211.55,49.94 241.78,83.23 272,99.88C302.22,116.52 332.45,133.16 362.67,149.81C392.89,166.45 453.33,183.1 453.33,199.75C453.33,216.4 392.89,233.04 362.67,249.69C332.45,266.34 302.22,282.98 272,299.63C241.78,316.27 211.55,349.56 181.33,349.56Z" style="stroke: none; fill: rgb(231, 144, 107);"/><path d="M181.33,339.58C157.15,339.58 121.45,321.05 108.8,299.63C94.9,276.11 108.8,233.04 108.8,199.75C108.8,166.46 94.9,123.4 108.8,99.88C121.45,78.46 157.15,59.92 181.33,59.92C205.51,59.92 227.25,85.22 253.87,99.88C286.47,117.84 330.07,141.84 362.67,159.8C389.29,174.46 435.2,186.43 435.2,199.75C435.2,213.07 389.29,225.04 362.67,239.7C330.07,257.66 286.47,281.67 253.87,299.63C227.25,314.29 205.51,339.58 181.33,339.58Z" style="stroke: none; fill: rgb(221, 117, 112);"/><path d="M181.33,329.59C163.2,329.59 137.07,316.79 126.93,299.63C114.07,277.87 126.93,233.04 126.93,199.75C126.93,166.46 114.07,121.64 126.93,99.88C137.07,82.72 163.2,69.91 181.33,69.91C199.46,69.91 213.81,87.81 235.73,99.88C269.21,118.32 329.19,151.35 362.67,169.79C384.59,181.86 417.07,189.76 417.07,199.75C417.07,209.74 384.59,217.64 362.67,229.71C329.19,248.15 269.21,281.19 235.73,299.63C213.81,311.7 199.46,329.59 181.33,329.59Z" style="stroke: none; fill: rgb(203, 93, 116);"/><path d="M181.33,319.6C169.24,319.6 152.42,312.07 145.07,299.63C133.65,280.3 145.07,233.04 145.07,199.75C145.07,166.46 133.65,119.21 145.07,99.88C152.42,87.43 169.24,79.9 181.33,79.9C193.42,79.9 201.48,91 217.6,99.88C249.84,117.64 330.44,162.01 362.67,179.77C378.79,188.65 398.93,193.09 398.93,199.75C398.93,206.41 378.79,210.85 362.67,219.73C330.44,237.49 249.84,281.88 217.6,299.63C201.48,308.51 193.42,319.6 181.33,319.6Z" style="stroke: none; fill: rgb(162, 81, 118);"/><path d="M181.33,309.61C175.29,309.61 167.35,306.66 163.2,299.63C154.08,284.19 163.2,233.04 163.2,199.75C163.2,166.46 154.08,115.32 163.2,99.88C167.35,92.85 175.29,89.89 181.33,89.89C187.38,89.89 190.4,94.89 199.47,99.88C226.67,114.86 335.47,174.78 362.67,189.76C371.74,194.75 380.8,196.42 380.8,199.75C380.8,203.08 371.74,204.75 362.67,209.74C335.47,224.72 226.67,284.65 199.47,299.63C190.4,304.62 187.38,309.61 181.33,309.61Z" style="stroke: none; fill: rgb(122, 69, 121);"/></g><g class="contourlines"><g class="contourlevel"><path class="closedline" d="M181.33,389.51C126.19,389.51 41.12,338.54 18.13,299.63C1.29,271.14 18.13,233.04 18.13,199.75C18.13,166.46 1.3,128.37 18.13,99.88C41.12,60.96 126.19,9.99 181.33,9.99C237.98,9.99 296.18,73.24 353.6,104.87C411.02,136.5 525.87,168.12 525.87,199.75C525.87,231.38 411.02,263.01 353.6,294.635C296.18,326.26 237.98,389.51 181.33,389.51Z" style="stroke-miterlimit: 1; vector-effect: non-scaling-stroke; fill: none; stroke: rgb(0, 0, 0); stroke-opacity: 1; stroke-width: 0.5px;"/></g><g class="contourlevel"><path class="closedline" d="M181.33,379.53C132.98,379.53 57.41,335.4 36.27,299.63C19.86,271.85 36.27,233.04 36.27,199.75C36.27,166.46 19.86,127.66 36.27,99.88C57.41,64.11 132.98,19.98 181.33,19.98C229.69,19.98 294.16,82.13 326.4,99.88C342.52,108.76 346.55,110.97 362.67,119.85C394.91,137.6 507.73,173.12 507.73,199.75C507.73,226.38 394.91,261.89 362.67,279.65C346.55,288.53 342.52,290.75 326.4,299.63C294.16,317.39 229.69,379.53 181.33,379.53Z" style="stroke-miterlimit: 1; vector-effect: non-scaling-stroke; fill: none; stroke: rgb(0, 0, 0); stroke-opacity: 1; stroke-width: 0.5px;"/></g><g class="contourlevel"><path class="closedline" d="M181.33,369.54C139.02,369.54 73.59,332.11 54.4,299.63C38.47,272.66 54.4,233.04 54.4,199.75C54.4,166.46 38.47,126.85 54.4,99.88C73.59,67.4 139.02,29.96 181.33,29.96C223.64,29.96 274.79,81.44 308.27,99.88C330.19,111.95 340.75,117.77 362.67,129.84C396.15,148.28 489.6,176.45 489.6,199.75C489.6,223.05 396.15,251.22 362.67,269.66C340.75,281.73 330.19,287.56 308.27,299.63C274.79,318.07 223.64,369.54 181.33,369.54Z" style="stroke-miterlimit: 1; vector-effect: non-scaling-stroke; fill: none; stroke: rgb(0, 0, 0); stroke-opacity: 1; stroke-width: 0.5px;"/></g><g class="contourlevel"><path class="closedline" d="M181.33,359.55C145.06,359.55 89.68,328.65 72.53,299.63C57.15,273.61 72.53,233.04 72.53,199.75C72.53,166.46 57.16,125.9 72.53,99.88C89.68,70.86 145.06,39.95 181.33,39.95C217.6,39.95 257.53,81.92 290.13,99.88C316.75,114.54 336.05,125.17 362.67,139.83C395.27,157.79 471.47,179.78 471.47,199.75C471.47,219.73 395.27,241.72 362.67,259.68C336.05,274.34 316.75,284.97 290.13,299.63C257.53,317.59 217.6,359.55 181.33,359.55Z" style="stroke-miterlimit: 1; vector-effect: non-scaling-stroke; fill: none; stroke: rgb(0, 0, 0); stroke-opacity: 1; stroke-width: 0.5px;"/></g><g class="contourlevel"><path class="closedline" d="M181.33,349.56C151.11,349.56 105.65,324.97 90.67,299.63C75.96,274.73 90.67,233.04 90.67,199.75C90.67,166.46 75.96,124.78 90.67,99.88C105.64,74.53 151.11,49.94 181.33,49.94C211.55,49.94 241.78,83.23 272,99.88C302.22,116.52 332.45,133.16 362.67,149.81C392.89,166.45 453.33,183.1 453.33,199.75C453.33,216.4 392.89,233.04 362.67,249.69C332.45,266.34 302.22,282.98 272,299.63C241.78,316.27 211.55,349.56 181.33,349.56Z" style="stroke-miterlimit: 1; vector-effect: non-scaling-stroke; fill: none; stroke: rgb(0, 0, 0); stroke-opacity: 1; stroke-width: 0.5px;"/></g><g class="contourlevel"><path class="closedline" d="M181.33,339.58C157.15,339.58 121.45,321.05 108.8,299.63C94.9,276.11 108.8,233.04 108.8,199.75C108.8,166.46 94.9,123.4 108.8,99.88C121.45,78.46 157.15,59.92 181.33,59.92C205.51,59.92 227.25,85.22 253.87,99.88C286.47,117.84 330.07,141.84 362.67,159.8C389.29,174.46 435.2,186.43 435.2,199.75C435.2,213.07 389.29,225.04 362.67,239.7C330.07,257.66 286.47,281.67 253.87,299.63C227.25,314.29 205.51,339.58 181.33,339.58Z" style="stroke-miterlimit: 1; vector-effect: non-scaling-stroke; fill: none; stroke: rgb(0, 0, 0); stroke-opacity: 1; stroke-width: 0.5px;"/></g><g class="contourlevel"><path class="closedline" d="M181.33,329.59C163.2,329.59 137.07,316.79 126.93,299.63C114.07,277.87 126.93,233.04 126.93,199.75C126.93,166.46 114.07,121.64 126.93,99.88C137.07,82.72 163.2,69.91 181.33,69.91C199.46,69.91 213.81,87.81 235.73,99.88C269.21,118.32 329.19,151.35 362.67,169.79C384.59,181.86 417.07,189.76 417.07,199.75C417.07,209.74 384.59,217.64 362.67,229.71C329.19,248.15 269.21,281.19 235.73,299.63C213.81,311.7 199.46,329.59 181.33,329.59Z" style="stroke-miterlimit: 1; vector-effect: non-scaling-stroke; fill: none; stroke: rgb(0, 0, 0); stroke-opacity: 1; stroke-width: 0.5px;"/></g><g class="contourlevel"><path class="closedline" d="M181.33,319.6C169.24,319.6 152.42,312.07 145.07,299.63C133.65,280.3 145.07,233.04 145.07,199.75C145.07,166.46 133.65,119.21 145.07,99.88C152.42,87.43 169.24,79.9 181.33,79.9C193.42,79.9 201.48,91 217.6,99.88C249.84,117.64 330.44,162.01 362.67,179.77C378.79,188.65 398.93,193.09 398.93,199.75C398.93,206.41 378.79,210.85 362.67,219.73C330.44,237.49 249.84,281.88 217.6,299.63C201.48,308.51 193.42,319.6 181.33,319.6Z" style="stroke-miterlimit: 1; vector-effect: non-scaling-stroke; fill: none; stroke: rgb(0, 0, 0); stroke-opacity: 1; stroke-width: 0.5px;"/></g><g class="contourlevel"><path class="closedline" d="M181.33,309.61C175.29,309.61 167.35,306.66 163.2,299.63C154.08,284.19 163.2,233.04 163.2,199.75C163.2,166.46 154.08,115.32 163.2,99.88C167.35,92.85 175.29,89.89 181.33,89.89C187.38,89.89 190.4,94.89 199.47,99.88C226.67,114.86 335.47,174.78 362.67,189.76C371.74,194.75 380.8,196.42 380.8,199.75C380.8,203.08 371.74,204.75 362.67,209.74C335.47,224.72 226.67,284.65 199.47,299.63C190.4,304.62 187.38,309.61 181.33,309.61Z" style="stroke-miterlimit: 1; vector-effect: non-scaling-stroke; fill: none; stroke: rgb(0, 0, 0); stroke-opacity: 1; stroke-width: 0.5px;"/></g></g></g></g><g class="scatterlayer mlayer"><g class="trace scatter trace7d7a702e-ef83-461f-999c-d4935a3e6b05" style="stroke-miterlimit: 2; opacity: 1;"><g class="fills"/><g class="errorbars"/><g class="lines"/><g class="points"><path class="point" transform="translate(132.37,274.66)" style="opacity: 0.4; stroke-width: 0px; fill: rgb(255, 255, 255); fill-opacity: 1;" d="M2.5,0A2.5,2.5 0 1,1 0,-2.5A2.5,2.5 0 0,1 2.5,0Z"/><path class="point" transform="translate(179.52,224.72)" style="opacity: 0.4; stroke-width: 0px; fill: rgb(255, 255, 255); fill-opacity: 1;" d="M2.5,0A2.5,2.5 0 1,1 0,-2.5A2.5,2.5 0 0,1 2.5,0Z"/><path class="point" transform="translate(400.75,174.78)" style="opacity: 0.4; stroke-width: 0px; fill: rgb(255, 255, 255); fill-opacity: 1;" d="M2.5,0A2.5,2.5 0 1,1 0,-2.5A2.5,2.5 0 0,1 2.5,0Z"/><path class="point" transform="translate(252.05,124.84)" style="opacity: 0.4; stroke-width: 0px; fill: rgb(255, 255, 255); fill-opacity: 1;" d="M2.5,0A2.5,2.5 0 1,1 0,-2.5A2.5,2.5 0 0,1 2.5,0Z"/></g><g class="text"/></g></g></g><g class="overplot"/><path class="xlines-above crisp" style="fill: none; stroke-width: 1px; stroke: rgb(0, 0, 0); stroke-opacity: 0;" d=""/><path class="ylines-above crisp" style="fill: none; stroke-width: 1px; stroke: rgb(0, 0, 0); stroke-opacity: 0;" d=""/><g class="overlines-above"/><g class="xaxislayer-above"><path class="xtick ticks crisp" style="stroke: rgb(68, 68, 68); stroke-opacity: 1; stroke-width: 1px;" d="M0,521v5" transform="translate(99.95,0)"/><path class="xtick ticks crisp" style="stroke: rgb(68, 68, 68); stroke-opacity: 1; stroke-width: 1px;" d="M0,521v5" transform="translate(172.48000000000002,0)"/><path class="xtick ticks crisp" style="stroke: rgb(68, 68, 68); stroke-opacity: 1; stroke-width: 1px;" d="M0,521v5" transform="translate(245.01,0)"/><path class="xtick ticks crisp" style="stroke: rgb(68, 68, 68); stroke-opacity: 1; stroke-width: 1px;" d="M0,521v5" transform="translate(317.55,0)"/><path class="xtick ticks crisp" style="stroke: rgb(68, 68, 68); stroke-opacity: 1; stroke-width: 1px;" d="M0,521v5" transform="translate(390.08,0)"/><path class="xtick ticks crisp" style="stroke: rgb(68, 68, 68); stroke-opacity: 1; stroke-width: 1px;" d="M0,521v5" transform="translate(462.61,0)"/><path class="xtick ticks crisp" style="stroke: rgb(68, 68, 68); stroke-opacity: 1; stroke-width: 1px;" d="M0,521v5" transform="translate(535.15,0)"/><path class="xtick ticks crisp" style="stroke: rgb(68, 68, 68); stroke-opacity: 1; stroke-width: 1px;" d="M0,521v5" transform="translate(607.68,0)"/><g class="xtick"><text text-anchor="middle" x="0" y="540.4" style="font-family: TOBESTRIPPEDOpen SansTOBESTRIPPED, verdana, arial, sans-serif; font-size: 12px; fill: rgb(68, 68, 68); fill-opacity: 1; white-space: pre;" transform="translate(99.95,0)">−20</text></g><g class="xtick"><text text-anchor="middle" x="0" y="540.4" style="font-family: TOBESTRIPPEDOpen SansTOBESTRIPPED, verdana, arial, sans-serif; font-size: 12px; fill: rgb(68, 68, 68); fill-opacity: 1; white-space: pre;" transform="translate(172.48000000000002,0)">0</text></g><g class="xtick"><text text-anchor="middle" x="0" y="540.4" style="font-family: TOBESTRIPPEDOpen SansTOBESTRIPPED, verdana, arial, sans-serif; font-size: 12px; fill: rgb(68, 68, 68); fill-opacity: 1; white-space: pre;" transform="translate(245.01,0)">20</text></g><g class="xtick"><text text-anchor="middle" x="0" y="540.4" style="font-family: TOBESTRIPPEDOpen SansTOBESTRIPPED, verdana, arial, sans-serif; font-size: 12px; fill: rgb(68, 68, 68); fill-opacity: 1; white-space: pre;" transform="translate(317.55,0)">40</text></g><g class="xtick"><text text-anchor="middle" x="0" y="540.4" style="font-family: TOBESTRIPPEDOpen SansTOBESTRIPPED, verdana, arial, sans-serif; font-size: 12px; fill: rgb(68, 68, 68); fill-opacity: 1; white-space: pre;" transform="translate(390.08,0)">60</text></g><g class="xtick"><text text-anchor="middle" x="0" y="540.4" style="font-family: TOBESTRIPPEDOpen SansTOBESTRIPPED, verdana, arial, sans-serif; font-size: 12px; fill: rgb(68, 68, 68); fill-opacity: 1; white-space: pre;" transform="translate(462.61,0)">80</text></g><g class="xtick"><text text-anchor="middle" x="0" y="540.4" style="font-family: TOBESTRIPPEDOpen SansTOBESTRIPPED, verdana, arial, sans-serif; font-size: 12px; fill: rgb(68, 68, 68); fill-opacity: 1; white-space: pre;" transform="translate(535.15,0)">100</text></g><g class="xtick"><text text-anchor="middle" x="0" y="540.4" style="font-family: TOBESTRIPPEDOpen SansTOBESTRIPPED, verdana, arial, sans-serif; font-size: 12px; fill: rgb(68, 68, 68); fill-opacity: 1; white-space: pre;" transform="translate(607.68,0)">120</text></g></g><g class="yaxislayer-above"><path class="ytick ticks crisp" style="stroke: rgb(68, 68, 68); stroke-opacity: 1; stroke-width: 1px;" d="M79,0h-5" transform="translate(0,495.03)"/><path class="ytick ticks crisp" style="stroke: rgb(68, 68, 68); stroke-opacity: 1; stroke-width: 1px;" d="M79,0h-5" transform="translate(0,445.09)"/><path class="ytick ticks crisp" style="stroke: rgb(68, 68, 68); stroke-opacity: 1; stroke-width: 1px;" d="M79,0h-5" transform="translate(0,395.16)"/><path class="ytick ticks crisp" style="stroke: rgb(68, 68, 68); stroke-opacity: 1; stroke-width: 1px;" d="M79,0h-5" transform="translate(0,345.22)"/><path class="ytick ticks crisp" style="stroke: rgb(68, 68, 68); stroke-opacity: 1; stroke-width: 1px;" d="M79,0h-5" transform="translate(0,295.28000000000003)"/><path class="ytick ticks crisp" style="stroke: rgb(68, 68, 68); stroke-opacity: 1; stroke-width: 1px;" d="M79,0h-5" transform="translate(0,245.34000000000003)"/><path class="ytick ticks crisp" style="stroke: rgb(68, 68, 68); stroke-opacity: 1; stroke-width: 1px;" d="M79,0h-5" transform="translate(0,195.41000000000003)"/><path class="ytick ticks crisp" style="stroke: rgb(68, 68, 68); stroke-opacity: 1; stroke-width: 1px;" d="M79,0h-5" transform="translate(0,145.47000000000003)"/><g class="ytick"><text text-anchor="end" x="71.6" y="4.199999999999999" style="font-family: TOBESTRIPPEDOpen SansTOBESTRIPPED, verdana, arial, sans-serif; font-size: 12px; fill: rgb(68, 68, 68); fill-opacity: 1; white-space: pre;" transform="translate(0,495.03)">3</text></g><g class="ytick"><text text-anchor="end" x="71.6" y="4.199999999999999" style="font-family: TOBESTRIPPEDOpen SansTOBESTRIPPED, verdana, arial, sans-serif; font-size: 12px; fill: rgb(68, 68, 68); fill-opacity: 1; white-space: pre;" transform="translate(0,445.09)">4</text></g><g class="ytick"><text text-anchor="end" x="71.6" y="4.199999999999999" style="font-family: TOBESTRIPPEDOpen SansTOBESTRIPPED, verdana, arial, sans-serif; font-size: 12px; fill: rgb(68, 68, 68); fill-opacity: 1; white-space: pre;" transform="translate(0,395.16)">5</text></g><g class="ytick"><text text-anchor="end" x="71.6" y="4.199999999999999" style="font-family: TOBESTRIPPEDOpen SansTOBESTRIPPED, verdana, arial, sans-serif; font-size: 12px; fill: rgb(68, 68, 68); fill-opacity: 1; white-space: pre;" transform="translate(0,345.22)">6</text></g><g class="ytick"><text text-anchor="end" x="71.6" y="4.199999999999999" style="font-family: TOBESTRIPPEDOpen SansTOBESTRIPPED, verdana, arial, sans-serif; font-size: 12px; fill: rgb(68, 68, 68); fill-opacity: 1; white-space: pre;" transform="translate(0,295.28000000000003)">7</text></g><g class="ytick"><text text-anchor="end" x="71.6" y="4.199999999999999" style="font-family: TOBESTRIPPEDOpen SansTOBESTRIPPED, verdana, arial, sans-serif; font-size: 12px; fill: rgb(68, 68, 68); fill-opacity: 1; white-space: pre;" transform="translate(0,245.34000000000003)">8</text></g><g class="ytick"><text text-anchor="end" x="71.6" y="4.199999999999999" style="font-family: TOBESTRIPPEDOpen SansTOBESTRIPPED, verdana, arial, sans-serif; font-size: 12px; fill: rgb(68, 68, 68); fill-opacity: 1; white-space: pre;" transform="translate(0,195.41000000000003)">9</text></g><g class="ytick"><text text-anchor="end" x="71.6" y="4.199999999999999" style="font-family: TOBESTRIPPEDOpen SansTOBESTRIPPED, verdana, arial, sans-serif; font-size: 12px; fill: rgb(68, 68, 68); fill-opacity: 1; white-space: pre;" transform="translate(0,145.47000000000003)">10</text></g></g><g class="overaxes-above"/></g><g class="subplot xy2"><g class="layer-subplot"><g class="shapelayer"/><g class="imagelayer"/></g><g class="gridlayer"><g class="x"/><g class="y2"/></g><g class="zerolinelayer"/><path class="xlines-below"/><path class="ylines-below"/><g class="overlines-below"/><g class="xaxislayer-below"/><g class="yaxislayer-below"/><g class="overaxes-below"/><g class="plot" transform="translate(80, 50)" clip-path="url('#clip91af5cxy2plot')"><g class="barlayer mlayer"><g class="trace bars" style="opacity: 1;" shape-rendering="crispEdges"><g class="points"><g class="point"><path style="vector-effect: non-scaling-stroke; opacity: 1; stroke-width: 0px; fill: rgb(255, 237, 222); fill-opacity: 1;" d="M90.67,70.5V3.53H272V70.5Z"/></g><g class="point"><path style="vector-effect: non-scaling-stroke; opacity: 1; stroke-width: 0px; fill: rgb(255, 237, 222); fill-opacity: 1;" d="M272,70.5V48.18H453.33V70.5Z"/></g></g></g></g></g><g class="overplot"/><path class="xlines-above crisp" style="fill: none;" d="M0,0"/><path class="ylines-above crisp" style="fill: none;" d="M0,0"/><g class="overlines-above"/><g class="xaxislayer-above"/><g class="yaxislayer-above"><g class="y2tick"><text text-anchor="end" x="79" y="4.199999999999999" style="font-family: TOBESTRIPPEDOpen SansTOBESTRIPPED, verdana, arial, sans-serif; font-size: 12px; fill: rgb(68, 68, 68); fill-opacity: 1; white-space: pre;" transform="translate(0,120.5)">0</text></g><g class="y2tick"><text text-anchor="end" x="79" y="4.199999999999999" style="font-family: TOBESTRIPPEDOpen SansTOBESTRIPPED, verdana, arial, sans-serif; font-size: 12px; fill: rgb(68, 68, 68); fill-opacity: 1; white-space: pre;" transform="translate(0,98.18)">1</text></g><g class="y2tick"><text text-anchor="end" x="79" y="4.199999999999999" style="font-family: TOBESTRIPPEDOpen SansTOBESTRIPPED, verdana, arial, sans-serif; font-size: 12px; fill: rgb(68, 68, 68); fill-opacity: 1; white-space: pre;" transform="translate(0,75.85)">2</text></g><g class="y2tick"><text text-anchor="end" x="79" y="4.199999999999999" style="font-family: TOBESTRIPPEDOpen SansTOBESTRIPPED, verdana, arial, sans-serif; font-size: 12px; fill: rgb(68, 68, 68); fill-opacity: 1; white-space: pre;" transform="translate(0,53.53)">3</text></g></g><g class="overaxes-above"/></g><g class="subplot x2y"><g class="layer-subplot"><g class="shapelayer"/><g class="imagelayer"/></g><g class="gridlayer"><g class="x2"/><g class="y"/></g><g class="zerolinelayer"/><path class="xlines-below"/><path class="ylines-below"/><g class="overlines-below"/><g class="xaxislayer-below"/><g class="yaxislayer-below"/><g class="overaxes-below"/><g class="plot" transform="translate(624, 120.50000000000001)" clip-path="url('#clip91af5cx2yplot')"><g class="barlayer mlayer"><g class="trace bars" style="opacity: 1;" shape-rendering="crispEdges"><g class="points"><g class="point"><path style="vector-effect: non-scaling-stroke; opacity: 1; stroke-width: 0px; fill: rgb(255, 237, 222); fill-opacity: 1;" d="M0,349.56V249.69H45.6V349.56Z"/></g><g class="point"><path style="vector-effect: non-scaling-stroke; opacity: 1; stroke-width: 0px; fill: rgb(255, 237, 222); fill-opacity: 1;" d="M0,249.69V149.81H91.2V249.69Z"/></g><g class="point"><path style="vector-effect: non-scaling-stroke; opacity: 1; stroke-width: 0px; fill: rgb(255, 237, 222); fill-opacity: 1;" d="M0,149.81V49.94H45.6V149.81Z"/></g></g></g></g></g><g class="overplot"/><path class="xlines-above crisp" style="fill: none;" d="M0,0"/><path class="ylines-above crisp" style="fill: none;" d="M0,0"/><g class="overlines-above"/><g class="xaxislayer-above"><g class="x2tick"><text text-anchor="middle" x="0" y="533" style="font-family: TOBESTRIPPEDOpen SansTOBESTRIPPED, verdana, arial, sans-serif; font-size: 12px; fill: rgb(68, 68, 68); fill-opacity: 1; white-space: pre;" transform="translate(624,0)">0</text></g><g class="x2tick"><text text-anchor="middle" x="0" y="533" style="font-family: TOBESTRIPPEDOpen SansTOBESTRIPPED, verdana, arial, sans-serif; font-size: 12px; fill: rgb(68, 68, 68); fill-opacity: 1; white-space: pre;" transform="translate(646.8,0)">0.5</text></g><g class="x2tick"><text text-anchor="middle" x="0" y="533" style="font-family: TOBESTRIPPEDOpen SansTOBESTRIPPED, verdana, arial, sans-serif; font-size: 12px; fill: rgb(68, 68, 68); fill-opacity: 1; white-space: pre;" transform="translate(669.6,0)">1</text></g><g class="x2tick"><text text-anchor="middle" x="0" y="533" style="font-family: TOBESTRIPPEDOpen SansTOBESTRIPPED, verdana, arial, sans-serif; font-size: 12px; fill: rgb(68, 68, 68); fill-opacity: 1; white-space: pre;" transform="translate(692.4,0)">1.5</text></g><g class="x2tick"><text text-anchor="middle" x="0" y="533" style="font-family: TOBESTRIPPEDOpen SansTOBESTRIPPED, verdana, arial, sans-serif; font-size: 12px; fill: rgb(68, 68, 68); fill-opacity: 1; white-space: pre;" transform="translate(715.2,0)">2</text></g></g><g class="yaxislayer-above"/><g class="overaxes-above"/></g></g><g class="polarlayer"/><g class="ternarylayer"/><g class="geolayer"/><g class="funnelarealayer"/><g class="pielayer"/><g class="sunburstlayer"/><g class="glimages"/><defs id="topdefs-91af5c"><g class="clips"/></defs><g class="layer-above"><g class="imagelayer"/><g class="shapelayer"/></g><g class="infolayer"><g class="g-gtitle"><text class="gtitle" style="font-family: TOBESTRIPPEDOpen SansTOBESTRIPPED, verdana, arial, sans-serif; font-size: 17px; fill: rgb(68, 68, 68); opacity: 1; font-weight: normal; white-space: pre;" x="400" y="25" text-anchor="middle" dy="0em">2D Density Plot</text></g><g class="g-xtitle"/><g class="g-x2title"/><g class="g-ytitle"/><g class="g-y2title"/></g></svg>